<svg xmlns="http://www.w3.org/2000/svg" viewBox="0 0 25.63 7.02"><defs><style>.cls-1{fill:#717071;}.cls-2{fill:#c30037;}.cls-3{fill:#fff;}</style></defs><g id="레이어_2" data-name="레이어 2"><g id="Layer_2" data-name="Layer 2"><path class="cls-1" d="M17.85,1.18h.92V4a1.49,1.49,0,0,0,.19.82.7.7,0,0,0,.64.3A1.25,1.25,0,0,0,20.05,5a.56.56,0,0,0,.29-.21.89.89,0,0,0,.17-.38,3.13,3.13,0,0,0,0-.58V1.18h.91V3.93a2.64,2.64,0,0,1-.12.85,1.4,1.4,0,0,1-.36.59,1.5,1.5,0,0,1-.59.34,2.76,2.76,0,0,1-.8.11,1.75,1.75,0,0,1-1.31-.45,2.12,2.12,0,0,1-.44-1.49Z"/><path class="cls-1" d="M23.69,0h.78V1.17h1.16V1.9H24.47V3.05h-.78V1.9H22.53V1.17h1.16Z"/><g id="_레이어_1" data-name=" 레이어 1"><g id="NEW"><path class="cls-2" d="M3.51,7A3.51,3.51,0,1,0,0,3.51,3.51,3.51,0,0,0,3.51,7"/><polygon class="cls-3" points="3.37 1.97 3.37 5.05 4.35 5.05 4.35 4.77 3.65 4.77 3.65 1.97 3.37 1.97"/><path class="cls-3" d="M2.39,2.81A.42.42,0,1,0,2,2.39a.42.42,0,0,0,.42.42"/><path class="cls-3" d="M3.65.57H3.51A2.94,2.94,0,1,0,6.45,3.51V3.38H4.35v.27H6.17v0A2.66,2.66,0,1,1,3.51.85h.14V.58Z"/><path class="cls-1" d="M9.66,1.18H8.61V5.75h3.24V4.86H9.66ZM14.17,4H15v.8a2.46,2.46,0,0,1-.76.12c-.95,0-1.27-.48-1.27-1.46S13.3,2,14.25,2a1.24,1.24,0,0,1,1.08.48l.66-.6a2.07,2.07,0,0,0-1.76-.75A2,2,0,0,0,12,3.46c0,1.53.7,2.36,2.24,2.36A3.41,3.41,0,0,0,16,5.38V3.16H14.17V4Z"/></g></g></g></g></svg>