<?xml version="1.0" encoding="utf-8"?>
<!-- Generator: Adobe Illustrator 26.3.1, SVG Export Plug-In . SVG Version: 6.00 Build 0)  -->
<svg version="1.1" id="레이어_1" xmlns="http://www.w3.org/2000/svg" xmlns:xlink="http://www.w3.org/1999/xlink" x="0px"
	 y="0px" viewBox="0 0 20 20" style="enable-background:new 0 0 20 20;" xml:space="preserve">
<style type="text/css">
	.st0{fill:#EDECF4;}
</style>
<g>
	<path class="st0" d="M10,1.4C10,1.4,10.1,1.4,10,1.4l9,8c0,0,0,0.1,0,0.1v9.4c0,0.1-0.1,0.1-0.1,0.1H13v-7v-1h-1H8H7v1v7H1.1
		C1.1,19,1,18.9,1,18.9V9.5c0,0,0-0.1,0-0.1L10,1.4C9.9,1.4,10,1.4,10,1.4 M10,0.4c-0.3,0-0.5,0.1-0.8,0.3l-8.9,8
		C0.1,8.9,0,9.2,0,9.5v9.4C0,19.5,0.5,20,1.1,20H8v-8h4v8h6.9c0.6,0,1.1-0.5,1.1-1.1V9.5c0-0.3-0.1-0.6-0.4-0.9l-8.9-8
		C10.5,0.5,10.3,0.4,10,0.4L10,0.4z"/>
</g>
</svg>
