<?xml version="1.0" encoding="utf-8"?>
<!-- Generator: Adobe Illustrator 26.3.1, SVG Export Plug-In . SVG Version: 6.00 Build 0)  -->
<svg version="1.1" id="레이어_1" xmlns="http://www.w3.org/2000/svg" xmlns:xlink="http://www.w3.org/1999/xlink" x="0px"
	 y="0px" viewBox="0 0 20 20" style="enable-background:new 0 0 20 20;" xml:space="preserve">
<style type="text/css">
	.st0{fill:none;}
	.st1{fill:#EDECF4;}
</style>
<rect class="st0" width="20" height="20"/>
<g>
	<g>
		<path class="st1" d="M10,3c1.7,0,3,1.3,3,3s-1.3,3-3,3S7,7.7,7,6S8.3,3,10,3 M10,2C7.8,2,6,3.8,6,6s1.8,4,4,4s4-1.8,4-4
			S12.2,2,10,2L10,2z"/>
	</g>
	<path class="st1" d="M10,11c3.9,0,7,3.1,7,7h1c0-4.4-3.6-8-8-8s-8,3.6-8,8h1C3,14.1,6.1,11,10,11z"/>
</g>
</svg>
