<?xml version="1.0" encoding="UTF-8" standalone="no"?>
<svg
   xmlns:dc="http://purl.org/dc/elements/1.1/"
   xmlns:cc="http://creativecommons.org/ns#"
   xmlns:rdf="http://www.w3.org/1999/02/22-rdf-syntax-ns#"
   xmlns:svg="http://www.w3.org/2000/svg"
   xmlns="http://www.w3.org/2000/svg"
   xmlns:sodipodi="http://sodipodi.sourceforge.net/DTD/sodipodi-0.dtd"
   xmlns:inkscape="http://www.inkscape.org/namespaces/inkscape"
   version="1.1"
   id="svg2"
   xml:space="preserve"
   width="573.33331"
   height="82.666664"
   viewBox="0 0 573.33331 82.666664"
   sodipodi:docname="무제-1.ai"><metadata
     id="metadata8"><rdf:RDF><cc:Work
         rdf:about=""><dc:format>image/svg+xml</dc:format><dc:type
           rdf:resource="http://purl.org/dc/dcmitype/StillImage" /></cc:Work></rdf:RDF></metadata><defs
     id="defs6"><clipPath
       clipPathUnits="userSpaceOnUse"
       id="clipPath18"><path
         d="M 0,62 H 430 V 0 H 0 Z"
         id="path16" /></clipPath></defs><sodipodi:namedview
     pagecolor="#ffffff"
     bordercolor="#666666"
     borderopacity="1"
     objecttolerance="10"
     gridtolerance="10"
     guidetolerance="10"
     inkscape:pageopacity="0"
     inkscape:pageshadow="2"
     inkscape:window-width="640"
     inkscape:window-height="480"
     id="namedview4" /><g
     id="g10"
     inkscape:groupmode="layer"
     inkscape:label="무제-1"
     transform="matrix(1.3333333,0,0,-1.3333333,0,82.666667)"><g
       id="g12"><g
         id="g14"
         clip-path="url(#clipPath18)"><g
           id="g20"
           transform="translate(0.3596,49.5595)"><path
             d="m 0,0 h 9.797 v -29.968 c 0,-7.494 2.495,-12.021 8.909,-12.021 7.561,0 10.332,3.58 10.332,13.299 V 0 h 9.79 v -29.294 c 0,-14.176 -7.223,-20.254 -20.054,-20.254 C 6.148,-49.548 0,-43.54 0,-28.753 Z"
             style="fill:#fff;fill-opacity:1;fill-rule:nonzero;stroke:none"
             id="path22" /></g><g
           id="g24"
           transform="translate(55.8918,61.6806)"><path
             d="m 0,0 h 8.148 v -12.121 h 12.051 v -7.676 H 8.148 V -31.783 H 0 v 11.986 h -12.055 v 7.676 H 0 Z"
             style="fill:#fff;fill-opacity:1;fill-rule:nonzero;stroke:none"
             id="path26" /></g><g
           id="g28"
           transform="translate(132.8289,52.3202)"><path
             d="m 0,0 v -39.997 c 0,-4.046 -0.285,-9.116 -0.912,-12.079 H -7.578 V 0 Z m -37.661,-27.634 c 0,-0.683 0.227,-0.911 0.854,-0.911 h 5.413 v 19.486 h -6.267 z m 26.664,26.836 v -38.515 c 0,-3.647 -0.341,-8.035 -0.911,-10.998 h -6.495 v 29.344 h -5.299 v -13.789 h -17.264 c -2.735,0 -4.387,1.482 -4.387,4.33 v 27.577 h 21.651 v -11.68 h 5.299 v 13.731 z"
             style="fill:#fff;fill-opacity:1;fill-rule:nonzero;stroke:none"
             id="path30" /></g><g
           id="g32"
           transform="translate(172.6561,52.3202)"><path
             d="m 0,0 h 7.92 v -41.137 c 0,-3.59 -0.399,-7.976 -0.969,-10.939 H 0 Z m -23.588,-2.051 h 7.977 v -9.8 c 0,-9.116 3.76,-14.301 12.933,-17.833 l -3.817,-6.496 c -4.73,1.824 -10.028,5.812 -12.307,10.882 -2.393,-4.843 -7.749,-8.945 -13.789,-11.509 l -3.133,5.356 c 9.287,4.216 12.136,9.857 12.136,19.543 z"
             style="fill:#fff;fill-opacity:1;fill-rule:nonzero;stroke:none"
             id="path34" /></g><g
           id="g36"
           transform="translate(222.5111,52.3202)"><path
             d="m 0,0 h 7.862 v -41.137 c 0,-3.59 -0.398,-7.976 -0.969,-10.939 H 0 Z m -33.503,-2.735 h 27.862 v -6.381 h -9.686 v -2.336 c 0,-9.116 3.248,-14.301 12.364,-17.72 l -3.817,-6.609 c -4.9,2.108 -9.572,5.755 -11.851,10.996 -2.393,-5.07 -7.692,-9.116 -13.618,-11.452 l -3.133,5.242 c 9.458,4.273 11.964,10.199 11.964,19.486 v 2.393 h -10.085 z"
             style="fill:#fff;fill-opacity:1;fill-rule:nonzero;stroke:none"
             id="path38" /></g><g
           id="g40"
           transform="translate(247.7523,26.9086)"><path
             d="m 0,0 c 0,-3.76 1.596,-5.583 5.014,-5.583 3.533,0 5.014,1.823 5.014,5.583 0,3.704 -1.937,5.356 -5.014,5.356 C 1.994,5.356 0,3.704 0,0 m -2.734,25.184 c 2.62,-1.197 7.349,-1.71 10.369,-1.71 h 4.786 V 17.378 H 5.242 c -2.963,0 -6.667,0.456 -8.945,1.253 z M -4.33,7.179 h -5.755 v 6.154 H 20.112 V 7.179 h -5.754 c 0.855,-0.911 1.595,-1.937 2.051,-3.076 h 8.718 v 21.309 h 7.862 v -41.137 c 0,-3.59 -0.398,-7.977 -0.969,-10.939 H 25.127 V -2.45 H 17.15 c -0.684,-5.527 -4.444,-9.287 -12.193,-9.287 -8.66,0 -12.193,4.786 -12.193,11.395 0,2.963 1.026,5.584 2.906,7.521"
             style="fill:#fff;fill-opacity:1;fill-rule:nonzero;stroke:none"
             id="path42" /></g><g
           id="g44"
           transform="translate(319.1448,30.0424)"><path
             d="M 0,0 V 6.609 H -17.776 V 1.025 C -17.776,0.171 -17.549,0 -16.922,0 Z M -17.776,20.626 V 12.934 H 0 v 7.692 H 7.806 V -6.325 h -28.83 c -3.076,0 -4.501,1.425 -4.501,4.673 v 22.278 z m 32.419,-41.252 h -47.005 v 6.439 h 47.005 z"
             style="fill:#fff;fill-opacity:1;fill-rule:nonzero;stroke:none"
             id="path46" /></g><g
           id="g48"
           transform="translate(372.0765,52.3202)"><path
             d="m 0,0 h 7.862 v -41.137 c 0,-3.59 -0.398,-7.976 -0.969,-10.939 H 0 Z m -27.065,-17.72 c 0,-5.07 2.451,-7.692 6.895,-7.692 4.387,0 6.78,2.622 6.78,7.692 0,4.786 -2.393,7.407 -6.78,7.407 -4.444,0 -6.895,-2.621 -6.895,-7.407 m 6.781,14.245 c 9.914,0 14.7,-6.724 14.7,-14.188 0,-7.749 -4.786,-14.358 -14.7,-14.358 -9.857,0 -14.586,6.609 -14.586,14.358 0,7.464 4.729,14.188 14.586,14.188"
             style="fill:#fff;fill-opacity:1;fill-rule:nonzero;stroke:none"
             id="path50" /></g><g
           id="g52"
           transform="translate(421.932,52.3202)"><path
             d="m 0,0 h 7.862 v -41.137 c 0,-3.59 -0.398,-7.976 -0.969,-10.939 H 0 Z m -33.503,-2.735 h 27.862 v -6.381 h -9.686 v -2.336 c 0,-9.116 3.248,-14.301 12.364,-17.72 l -3.817,-6.609 c -4.901,2.108 -9.573,5.755 -11.852,10.996 -2.393,-5.07 -7.691,-9.116 -13.617,-11.452 l -3.134,5.242 c 9.458,4.273 11.965,10.199 11.965,19.486 v 2.393 h -10.085 z"
             style="fill:#fff;fill-opacity:1;fill-rule:nonzero;stroke:none"
             id="path54" /></g></g></g></g></svg>
