<?xml version="1.0" encoding="utf-8"?>
<!-- Generator: Adobe Illustrator 26.3.1, SVG Export Plug-In . SVG Version: 6.00 Build 0)  -->
<svg version="1.1" id="레이어_1" xmlns="http://www.w3.org/2000/svg" xmlns:xlink="http://www.w3.org/1999/xlink" x="0px"
	 y="0px" viewBox="0 0 20 20" style="enable-background:new 0 0 20 20;" xml:space="preserve">
<style type="text/css">
	.st0{fill:none;stroke:#EDECF4;stroke-miterlimit:10;}
	.st1{fill:#EDECF4;}
</style>
<line class="st0" x1="9.9" y1="9.5" x2="0.7" y2="9.5"/>
<path class="st0" d="M6.9,9.5"/>
<polygon class="st1" points="8,6 8,13 13,9.5 "/>
<path class="st1" d="M2,15c1.7,2.4,4.5,4,7.7,4c5.2,0,9.5-4.3,9.5-9.5S14.9,0,9.7,0C6.5,0,3.7,1.6,2,4h1.4c1.5-1.8,3.8-2.9,6.3-2.9
	c4.6,0,8.4,3.8,8.4,8.4s-3.8,8.4-8.4,8.4c-2.5,0-4.8-1.1-6.3-2.9H2z"/>
</svg>
